<?xml version="1.0" encoding="UTF-8" standalone="no"?>
<svg
   xmlns:dc="http://purl.org/dc/elements/1.1/"
   xmlns:cc="http://creativecommons.org/ns#"
   xmlns:rdf="http://www.w3.org/1999/02/22-rdf-syntax-ns#"
   xmlns:svg="http://www.w3.org/2000/svg"
   xmlns="http://www.w3.org/2000/svg"
   height="490pt"
   viewBox="0 -33 490.65402 490"
   width="490pt"
   version="1.1"
   id="svg889">
  <metadata
     id="metadata895">
    <rdf:RDF>
      <cc:Work
         rdf:about="">
        <dc:format>image/svg+xml</dc:format>
        <dc:type
           rdf:resource="http://purl.org/dc/dcmitype/StillImage" />
        <dc:title></dc:title>
      </cc:Work>
    </rdf:RDF>
  </metadata>
  <defs
     id="defs893" />
  <path
     id="path832"
     style="color:#000000;font-style:normal;font-variant:normal;font-weight:normal;font-stretch:normal;font-size:medium;line-height:normal;font-family:sans-serif;font-variant-ligatures:normal;font-variant-position:normal;font-variant-caps:normal;font-variant-numeric:normal;font-variant-alternates:normal;font-variant-east-asian:normal;font-feature-settings:normal;font-variation-settings:normal;text-indent:0;text-align:start;text-decoration:none;text-decoration-line:none;text-decoration-style:solid;text-decoration-color:#000000;letter-spacing:normal;word-spacing:normal;text-transform:none;writing-mode:lr-tb;direction:ltr;text-orientation:mixed;dominant-baseline:auto;baseline-shift:baseline;text-anchor:start;white-space:normal;shape-padding:0;shape-margin:0;inline-size:0;clip-rule:nonzero;display:inline;overflow:visible;visibility:visible;opacity:1;isolation:auto;mix-blend-mode:normal;color-interpolation:sRGB;color-interpolation-filters:linearRGB;solid-color:#000000;solid-opacity:1;vector-effect:none;fill:#808080;fill-opacity:1;fill-rule:evenodd;stroke:none;stroke-width:1;stroke-linecap:round;stroke-linejoin:miter;stroke-miterlimit:4;stroke-dasharray:none;stroke-dashoffset:0;stroke-opacity:1;color-rendering:auto;image-rendering:auto;shape-rendering:auto;text-rendering:auto;enable-background:accumulate;stop-color:#000000;stop-opacity:1"
     d="m 87.462044,-9.3342617 a 63.271999,63.271999 0 0 0 -44.936852,18.534471 63.271999,63.271999 0 0 0 0,89.4776727 L 155.84861,212.00131 42.525192,325.32326 a 63.271999,63.271999 0 0 0 0,89.47914 63.271999,63.271999 0 0 0 89.480598,0 L 245.32774,301.48044 358.6497,414.8024 a 63.271999,63.271999 0 0 0 89.47914,0 63.271999,63.271999 0 0 0 0,-89.47914 L 334.80689,212.00131 448.12884,98.677882 a 63.271999,63.271999 0 0 0 0,-89.4776727 63.271999,63.271999 0 0 0 -44.54375,-18.534471 63.271999,63.271999 0 0 0 -44.93539,18.534471 L 245.32774,122.52217 132.00579,9.2002093 A 63.271999,63.271999 0 0 0 87.462044,-9.3342617 Z" />
</svg>
