<?xml version="1.0" encoding="iso-8859-1"?>
<!-- Generator: Adobe Illustrator 18.1.1, SVG Export Plug-In . SVG Version: 6.00 Build 0)  -->
<svg version="1.1" id="Capa_1" xmlns="http://www.w3.org/2000/svg" xmlns:xlink="http://www.w3.org/1999/xlink" x="0px" y="0px"
	 viewBox="0 0 611.997 611.997" style="enable-background:new 0 0 611.997 611.997;" xml:space="preserve">
<g>
	<path d="M554.068,57.971C516.679,20.588,466.974,0,414.108,0c-52.869,0-102.575,20.588-139.956,57.971
		c-37.39,37.385-57.98,87.092-57.98,139.963c0,27.181,5.481,53.51,15.849,77.773L13.939,493.789
		c-3.961,3.957-6.401,9.182-6.897,14.754l-6.903,77.47c-0.63,7.044,1.894,13.999,6.892,18.995
		c4.998,4.998,11.951,7.522,18.995,6.894l77.474-6.901c5.572-0.498,10.793-2.937,14.754-6.901l23.491-23.493
		c-0.16-0.652-0.275-1.32-0.323-2.011l-3.851-56.142c-0.227-3.327,0.994-6.591,3.353-8.949c2.357-2.357,5.598-3.561,8.946-3.353
		L206.017,508c0.691,0.045,1.362,0.162,2.013,0.325l18.438-18.438c-0.162-0.652-0.277-1.323-0.325-2.015l-3.851-56.142
		c-0.227-3.327,0.996-6.591,3.353-8.949c2.357-2.359,5.615-3.574,8.949-3.353l56.146,3.851c0.688,0.045,1.362,0.162,2.013,0.325
		l43.594-43.596c24.263,10.369,50.594,15.847,77.771,15.847c52.871,0,102.575-20.588,139.961-57.969
		C631.246,260.723,631.246,135.151,554.068,57.971z M471.741,255.569c-15.393,15.391-35.859,23.867-57.631,23.867
		c-21.77,0-42.236-8.477-57.629-23.872c-15.395-15.393-23.874-35.861-23.874-57.631c0-21.772,8.479-42.238,23.874-57.631
		c15.388-15.393,35.857-23.869,57.627-23.869c21.772,0,42.238,8.477,57.631,23.869C503.518,172.082,503.518,223.793,471.741,255.569
		z"/>
</g>
<g>
</g>
<g>
</g>
<g>
</g>
<g>
</g>
<g>
</g>
<g>
</g>
<g>
</g>
<g>
</g>
<g>
</g>
<g>
</g>
<g>
</g>
<g>
</g>
<g>
</g>
<g>
</g>
<g>
</g>
</svg>
