<?xml version="1.0" encoding="UTF-8" standalone="no"?>
<svg
   xmlns:dc="http://purl.org/dc/elements/1.1/"
   xmlns:cc="http://creativecommons.org/ns#"
   xmlns:rdf="http://www.w3.org/1999/02/22-rdf-syntax-ns#"
   xmlns:svg="http://www.w3.org/2000/svg"
   xmlns="http://www.w3.org/2000/svg"
   xmlns:sodipodi="http://sodipodi.sourceforge.net/DTD/sodipodi-0.dtd"
   xmlns:inkscape="http://www.inkscape.org/namespaces/inkscape"
   height="490pt"
   viewBox="0 -33 490.65402 490"
   width="490pt"
   version="1.1"
   id="svg889"
   sodipodi:docname="lapiz.svg"
   inkscape:version="1.0.1 (0767f8302a, 2020-10-17)">
  <metadata
     id="metadata895">
    <rdf:RDF>
      <cc:Work
         rdf:about="">
        <dc:format>image/svg+xml</dc:format>
        <dc:type
           rdf:resource="http://purl.org/dc/dcmitype/StillImage" />
      </cc:Work>
    </rdf:RDF>
  </metadata>
  <defs
     id="defs893" />
  <sodipodi:namedview
     pagecolor="#ffffff"
     bordercolor="#666666"
     borderopacity="1"
     objecttolerance="10"
     gridtolerance="10"
     guidetolerance="10"
     inkscape:pageopacity="0"
     inkscape:pageshadow="2"
     inkscape:window-width="1920"
     inkscape:window-height="1016"
     id="namedview891"
     showgrid="false"
     inkscape:zoom="1.2872449"
     inkscape:cx="326.66667"
     inkscape:cy="326.66667"
     inkscape:window-x="0"
     inkscape:window-y="27"
     inkscape:window-maximized="1"
     inkscape:current-layer="svg889" />
  <path
     d="m469.320312 423.464844h-277.332031c-11.777343 0-21.335937-9.554688-21.335937-21.332032 0-11.777343 9.558594-21.332031 21.335937-21.332031h277.332031c11.777344 0 21.332032 9.554688 21.332032 21.332031 0 11.777344-9.554688 21.332032-21.332032 21.332032zm0 0"
     id="path883"
     style="fill:#ffffff" />
  <path
     d="m411.039062 42.582031-30.167968-30.167969c-16.125-16.128906-44.222656-16.105468-60.328125 0l-44.117188 44.117188 90.496094 90.496094 44.117187-44.117188c8.0625-8.042968 12.5-18.75 12.5-30.164062 0-11.390625-4.4375-22.101563-12.5-30.164063zm0 0"
     id="path885"
     style="fill:#ffffff" />
  <path
     d="m246.238281 86.71875-219.863281 219.863281c-1.40625 1.386719-2.386719 3.15625-2.835938 5.097657l-23.253906 98.664062c-.851562 3.585938.234375 7.382812 2.839844 9.984375 2.003906 2.027344 4.734375 3.136719 7.527344 3.136719.8125 0 1.644531-.085938 2.453125-.277344l98.667969-23.253906c1.921874-.445313 3.691406-1.429688 5.097656-2.835938l219.863281-219.859375zm0 0"
     id="path887"
     style="fill:#ffffff" />
</svg>
