<?xml version="1.0" encoding="UTF-8" standalone="no"?>
<svg
   xmlns:dc="http://purl.org/dc/elements/1.1/"
   xmlns:cc="http://creativecommons.org/ns#"
   xmlns:rdf="http://www.w3.org/1999/02/22-rdf-syntax-ns#"
   xmlns:svg="http://www.w3.org/2000/svg"
   xmlns="http://www.w3.org/2000/svg"
   version="1.1"
   id="Capa_1"
   x="0px"
   y="0px"
   width="401.994px"
   height="401.994px"
   viewBox="0 0 401.994 401.994"
   style="enable-background:new 0 0 401.994 401.994;"
   xml:space="preserve"><metadata
   id="metadata59"><rdf:RDF><cc:Work
       rdf:about=""><dc:format>image/svg+xml</dc:format><dc:type
         rdf:resource="http://purl.org/dc/dcmitype/StillImage" /><dc:title></dc:title></cc:Work></rdf:RDF></metadata><defs
   id="defs57" />
<g
   id="g22"
   style="fill:#ffffff">
	<g
   id="g20"
   style="fill:#ffffff">
		<path
   d="M0,401.991h182.724V219.265H0V401.991z M36.542,255.813h109.636v109.352H36.542V255.813z"
   id="path2"
   style="fill:#ffffff" />
		<rect
   x="73.089"
   y="292.355"
   width="36.544"
   height="36.549"
   id="rect4"
   style="fill:#ffffff" />
		<rect
   x="292.352"
   y="365.449"
   width="36.553"
   height="36.545"
   id="rect6"
   style="fill:#ffffff" />
		<rect
   x="365.442"
   y="365.449"
   width="36.552"
   height="36.545"
   id="rect8"
   style="fill:#ffffff" />
		<polygon
   points="365.446,255.813 328.904,255.813 328.904,219.265 219.265,219.265 219.265,401.991 255.813,401.991     255.813,292.355 292.352,292.355 292.352,328.904 401.991,328.904 401.991,219.265 401.991,219.265 365.446,219.265   "
   id="polygon10"
   style="fill:#ffffff" />
		<path
   d="M0,182.728h182.724V0H0V182.728z M36.542,36.542h109.636v109.636H36.542V36.542z"
   id="path12"
   style="fill:#ffffff" />
		<rect
   x="73.089"
   y="73.089"
   width="36.544"
   height="36.547"
   id="rect14"
   style="fill:#ffffff" />
		<path
   d="M219.265,0v182.728h182.729V0H219.265z M365.446,146.178H255.813V36.542h109.633V146.178z"
   id="path16"
   style="fill:#ffffff" />
		<rect
   x="292.352"
   y="73.089"
   width="36.553"
   height="36.547"
   id="rect18"
   style="fill:#ffffff" />
	</g>
</g>
<g
   id="g24"
   style="fill:#ffffff">
</g>
<g
   id="g26"
   style="fill:#ffffff">
</g>
<g
   id="g28"
   style="fill:#ffffff">
</g>
<g
   id="g30"
   style="fill:#ffffff">
</g>
<g
   id="g32"
   style="fill:#ffffff">
</g>
<g
   id="g34"
   style="fill:#ffffff">
</g>
<g
   id="g36"
   style="fill:#ffffff">
</g>
<g
   id="g38"
   style="fill:#ffffff">
</g>
<g
   id="g40"
   style="fill:#ffffff">
</g>
<g
   id="g42"
   style="fill:#ffffff">
</g>
<g
   id="g44"
   style="fill:#ffffff">
</g>
<g
   id="g46"
   style="fill:#ffffff">
</g>
<g
   id="g48"
   style="fill:#ffffff">
</g>
<g
   id="g50"
   style="fill:#ffffff">
</g>
<g
   id="g52"
   style="fill:#ffffff">
</g>
</svg>
