<?xml version="1.0" encoding="UTF-8" standalone="no"?>
<!-- Created with Inkscape (http://www.inkscape.org/) -->

<svg
   xmlns:dc="http://purl.org/dc/elements/1.1/"
   xmlns:cc="http://creativecommons.org/ns#"
   xmlns:rdf="http://www.w3.org/1999/02/22-rdf-syntax-ns#"
   xmlns:svg="http://www.w3.org/2000/svg"
   xmlns="http://www.w3.org/2000/svg"
   xmlns:sodipodi="http://sodipodi.sourceforge.net/DTD/sodipodi-0.dtd"
   xmlns:inkscape="http://www.inkscape.org/namespaces/inkscape"
   width="47.22398mm"
   height="56.231098mm"
   viewBox="0 0 47.22398 56.231098"
   version="1.1"
   id="svg1135"
   inkscape:version="0.92.5 (2060ec1f9f, 2020-04-08)"
   sodipodi:docname="logotext.svg">
  <defs
     id="defs1129" />
  <sodipodi:namedview
     id="base"
     pagecolor="#ffffff"
     bordercolor="#666666"
     borderopacity="1.0"
     inkscape:pageopacity="0.0"
     inkscape:pageshadow="2"
     inkscape:zoom="0.74648437"
     inkscape:cx="244.76284"
     inkscape:cy="-78.561214"
     inkscape:document-units="mm"
     inkscape:current-layer="layer1"
     showgrid="false"
     fit-margin-top="0"
     fit-margin-left="0"
     fit-margin-right="0"
     fit-margin-bottom="0"
     inkscape:window-width="1366"
     inkscape:window-height="704"
     inkscape:window-x="0"
     inkscape:window-y="27"
     inkscape:window-maximized="1" />
  <metadata
     id="metadata1132">
    <rdf:RDF>
      <cc:Work
         rdf:about="">
        <dc:format>image/svg+xml</dc:format>
        <dc:type
           rdf:resource="http://purl.org/dc/dcmitype/StillImage" />
        <dc:title></dc:title>
      </cc:Work>
    </rdf:RDF>
  </metadata>
  <g
     inkscape:label="Capa 1"
     inkscape:groupmode="layer"
     id="layer1"
     transform="translate(-34.870479,-71.816248)">
    <path
       id="path964"
       d="m 58.017428,71.816944 c -2.8891,0.0185 -6.03984,0.29946 -8.59388,2.27272 -1.43193,1.13966 -2.63287,2.67597 -3.60903,4.487751 -0.72488,1.34541 -2.85446,1.61973 -3.33394,3.21921 -0.37016,0.92851 0.81992,3.16263 0.50108,4.21151 -1.48926,4.89945 -2.54754,10.62116 -4.3792,12.585379 -2.16068,1.795736 -6.25532,9.981856 -1.59186,11.437666 0,0 0.51919,-2.05622 0.80875,-0.10781 0.14194,0.95562 0.20268,-0.49606 0.7416,-0.56896 0.6853,-0.0928 0.5543,1.3398 0.74917,0.93304 1.33649,-2.78972 2.09031,-0.67655 2.09031,-0.67655 0,0 0.38972,-0.8641 0.73593,-0.96206 0.3669,-0.10384 1.00067,0.9573 0.98095,0.52126 -0.0428,-0.94663 0.0879,-1.55759 0.30272,-1.93743 4.2153,3.09769 9.322,4.78461 14.58511,4.78774 4.053199,-0.007 8.042179,-1.01291 11.613869,-2.92901 0.0279,-0.0519 0.0553,-0.10375 0.0853,-0.15623 0.47063,-0.79813 0.91327,-1.62864 1.35029,-2.46532 0.394089,0.38284 0.55013,1.02795 0.663218,0.69516 0.15308,-0.45057 2.285421,-1.43408 2.129811,2.00509 -0.01971,0.43604 0.614061,-0.6251 0.980962,-0.52126 0.346209,0.098 0.735927,0.96206 0.735927,0.96206 0,0 0.753711,-2.11317 2.090211,0.67655 0.194871,0.40676 0.064,-1.02584 0.749271,-0.93304 0.53892,0.0729 0.59966,1.52458 0.741598,0.56896 0.28956,-1.94841 0.808641,0.10781 0.808641,0.10781 4.63046,-1.44551 0.626729,-9.52554 -1.545299,-11.397746 -0.356841,-0.490769 -0.884931,-1.097399 -1.625161,-1.847479 -0.82728,-1.07579 -2.547159,-6.62977 -3.73911,-10.3694 -0.46102,-1.44643 0.379831,-3.92087 0.15898,-4.46033 -0.690626,-1.807661 -2.599328,-2.363221 -3.615439,-3.84491 -2.15192,-3.341511 -5.159719,-5.462581 -8.291689,-6.030951 -1.0859,-0.21564 -2.18398,-0.2712 -3.27911,-0.26342 z"
       style="color:#000000;display:inline;overflow:visible;visibility:visible;opacity:1;vector-effect:none;fill:#ab37c8;fill-opacity:1;fill-rule:nonzero;stroke:none;stroke-width:0.26458329;marker:none;enable-background:accumulate"
       inkscape:connector-curvature="0"
       inkscape:export-filename="/home/tania/Escritorio/Mooli.me.git/Svelte/public/static/logotext.png"
       inkscape:export-xdpi="49"
       inkscape:export-ydpi="49" />
    <path
       style="color:#000000;display:inline;overflow:visible;visibility:visible;opacity:1;vector-effect:none;fill:#eeaaff;fill-opacity:1;fill-rule:nonzero;stroke-width:0.99999988;marker:none;enable-background:accumulate"
       d="m 64.268719,91.453485 c 0,5.42711 -1.547791,12.447955 -6.263591,12.094545 -3.73413,0.4712 -6.26355,-6.667435 -6.26355,-12.094545 0,-2.29604 1.78406,-1.96681 2.65749,-2.99338 1.19107,-1.39992 1.76676,-3.70393 3.76254,-3.70393 2.01927,0 2.25706,2.06319 3.358101,3.50295 0.78517,1.02674 2.74901,0.93519 2.74901,3.19436 z"
       id="path966"
       inkscape:connector-curvature="0"
       inkscape:export-filename="/home/tania/Escritorio/Mooli.me.git/Svelte/public/static/logotext.png"
       inkscape:export-xdpi="49"
       inkscape:export-ydpi="49" />
    <ellipse
       style="color:#000000;display:inline;overflow:visible;visibility:visible;opacity:1;vector-effect:none;fill:#f6d5ff;fill-opacity:1;fill-rule:nonzero;stroke:none;stroke-width:0.99999982;stroke-linecap:round;stroke-linejoin:miter;stroke-miterlimit:4;stroke-dasharray:none;stroke-dashoffset:3.61808228;stroke-opacity:1;marker:none;enable-background:accumulate"
       id="ellipse968"
       ry="3.8548188"
       rx="4.322814"
       cy="99.939133"
       cx="58.005119"
       inkscape:export-filename="/home/tania/Escritorio/Mooli.me.git/Svelte/public/static/logotext.png"
       inkscape:export-xdpi="49"
       inkscape:export-ydpi="49" />
    <ellipse
       style="color:#000000;display:inline;overflow:visible;visibility:visible;opacity:1;vector-effect:none;fill:#220b28;fill-opacity:1;fill-rule:nonzero;stroke:none;stroke-width:0.99999988;stroke-linecap:round;stroke-linejoin:miter;stroke-miterlimit:4;stroke-dasharray:none;stroke-dashoffset:3.61808228;stroke-opacity:1;marker:none;enable-background:accumulate"
       id="ellipse970"
       cx="-59.909721"
       cy="101.43013"
       rx="0.95226783"
       ry="0.775922"
       transform="scale(-1,1)"
       inkscape:export-filename="/home/tania/Escritorio/Mooli.me.git/Svelte/public/static/logotext.png"
       inkscape:export-xdpi="49"
       inkscape:export-ydpi="49" />
    <ellipse
       transform="scale(-1,1)"
       ry="0.775922"
       rx="0.95226783"
       cy="101.43013"
       cx="-56.100548"
       id="ellipse972"
       style="color:#000000;display:inline;overflow:visible;visibility:visible;opacity:1;vector-effect:none;fill:#220b28;fill-opacity:1;fill-rule:nonzero;stroke:none;stroke-width:0.99999988;stroke-linecap:round;stroke-linejoin:miter;stroke-miterlimit:4;stroke-dasharray:none;stroke-dashoffset:3.61808228;stroke-opacity:1;marker:none;enable-background:accumulate"
       inkscape:export-filename="/home/tania/Escritorio/Mooli.me.git/Svelte/public/static/logotext.png"
       inkscape:export-xdpi="49"
       inkscape:export-ydpi="49" />
    <path
       style="color:#000000;display:inline;overflow:visible;visibility:visible;opacity:1;vector-effect:none;fill:#220b28;fill-opacity:1;fill-rule:nonzero;stroke:none;stroke-width:0.26458332;marker:none;enable-background:accumulate"
       id="path974"
       d="m 50.442698,84.229375 a 1.7409591,1.7409591 0 0 1 -1.73815,1.74095 1.7409591,1.7409591 0 0 1 -1.74375,-1.7353 1.7409591,1.7409591 0 0 1 1.73245,-1.74659 1.7409591,1.7409591 0 0 1 1.74941,1.72963 l -1.74093,0.0113 z"
       inkscape:connector-curvature="0"
       inkscape:export-filename="/home/tania/Escritorio/Mooli.me.git/Svelte/public/static/logotext.png"
       inkscape:export-xdpi="49"
       inkscape:export-ydpi="49" />
    <circle
       r="0.26507047"
       cy="83.151291"
       cx="49.58445"
       id="circle976"
       style="color:#000000;display:inline;overflow:visible;visibility:visible;opacity:1;vector-effect:none;fill:#ffd5d5;fill-opacity:1;fill-rule:nonzero;stroke:none;stroke-width:0.26458332;marker:none;enable-background:accumulate"
       inkscape:export-filename="/home/tania/Escritorio/Mooli.me.git/Svelte/public/static/logotext.png"
       inkscape:export-xdpi="49"
       inkscape:export-ydpi="49" />
    <path
       d="m 68.784138,84.274805 a 1.7409591,1.7409591 0 0 1 -1.738151,1.74096 1.7409591,1.7409591 0 0 1 -1.743757,-1.73531 1.7409591,1.7409591 0 0 1 1.732459,-1.74659 1.7409591,1.7409591 0 0 1 1.74941,1.72964 l -1.74093,0.0113 z"
       id="path978"
       style="color:#000000;display:inline;overflow:visible;visibility:visible;opacity:1;vector-effect:none;fill:#220b28;fill-opacity:1;fill-rule:nonzero;stroke:none;stroke-width:0.26458332;marker:none;enable-background:accumulate"
       inkscape:connector-curvature="0"
       inkscape:export-filename="/home/tania/Escritorio/Mooli.me.git/Svelte/public/static/logotext.png"
       inkscape:export-xdpi="49"
       inkscape:export-ydpi="49" />
    <circle
       style="color:#000000;display:inline;overflow:visible;visibility:visible;opacity:1;vector-effect:none;fill:#ffd5d5;fill-opacity:1;fill-rule:nonzero;stroke:none;stroke-width:0.26458332;marker:none;enable-background:accumulate"
       id="circle980"
       cx="67.925896"
       cy="83.196701"
       r="0.26507047"
       inkscape:export-filename="/home/tania/Escritorio/Mooli.me.git/Svelte/public/static/logotext.png"
       inkscape:export-xdpi="49"
       inkscape:export-ydpi="49" />
    <path
       id="path982"
       d="m 48.703068,76.147294 a 7.8209381,7.8209381 0 0 0 -7.82096,7.820971 7.8209381,7.8209381 0 0 0 7.82096,7.82096 7.8209381,7.8209381 0 0 0 7.62574,-6.12908 l 3.20051,0.0998 a 7.8209381,7.8209381 0 0 0 7.60441,6.02927 7.8209381,7.8209381 0 0 0 7.820861,-7.82096 7.8209381,7.8209381 0 0 0 -7.820861,-7.820971 7.8209381,7.8209381 0 0 0 -7.82033,7.802791 l -2.79462,-0.0874 a 7.8209381,7.8209381 0 0 0 -7.81571,-7.71537 z m 0,2.11826 a 5.702767,5.702767 0 0 1 5.70271,5.702711 5.702767,5.702767 0 0 1 -5.70271,5.7027 5.702767,5.702767 0 0 1 -5.70281,-5.7027 5.702767,5.702767 0 0 1 5.70281,-5.702711 z m 18.43066,0 a 5.702767,5.702767 0 0 1 5.70271,5.702711 5.702767,5.702767 0 0 1 -5.70271,5.7027 5.702767,5.702767 0 0 1 -5.70281,-5.7027 5.702767,5.702767 0 0 1 5.70281,-5.702711 z"
       style="color:#000000;display:inline;overflow:visible;visibility:visible;opacity:1;vector-effect:none;fill:#f6d5ff;fill-opacity:1;fill-rule:nonzero;stroke:#ffd5d5;stroke-width:0.26499999;stroke-miterlimit:4;stroke-dasharray:none;stroke-opacity:1;marker:none;enable-background:accumulate"
       inkscape:connector-curvature="0"
       inkscape:export-filename="/home/tania/Escritorio/Mooli.me.git/Svelte/public/static/logotext.png"
       inkscape:export-xdpi="49"
       inkscape:export-ydpi="49" />
    <path
       style="fill:#eeaaff;fill-opacity:1;fill-rule:evenodd;stroke:none;stroke-width:0.99999988;stroke-linecap:butt;stroke-linejoin:miter;stroke-miterlimit:4;stroke-dasharray:none;stroke-opacity:1"
       d="m 35.942098,107.77903 c -0.34407,1.42771 0.76096,2.52716 1.71253,3.03837 3.02834,1.67672 7.84914,4.1344 12.9281,4.37247 0.59518,0.0274 0.8111,-0.19424 0.66696,-0.6299 -0.68593,-4.1037 -1.19827,-8.51272 -2.32808,-11.65589 1.66911,1.59948 3.14415,2.95238 3.50378,2.74877 1.00127,-0.5669 -2.27379,-8.541245 -4.08207,-7.240195 -0.65573,0.4718 -0.96422,0.99414 -1.04905,1.51034 -0.39179,-0.43933 -0.83112,-0.782029 -1.32754,-1.009449 -1.65289,-0.757221 -2.59137,0.2179 -2.83697,0.963578 -0.92006,-0.29132 -1.81814,-0.004 -2.28435,0.271656 -1.33954,0.79161 -1.37171,1.64573 -1.32907,2.65642 -0.52394,-0.1709 -1.37478,-0.004 -1.72519,0.29466 -1.06007,0.90372 -1.13354,2.83198 -0.70759,3.54906 -0.36127,-0.0363 -0.63731,0.0517 -0.79106,0.30483 -0.17328,0.28524 -0.28669,0.56093 -0.3504,0.82528 z"
       id="path984"
       inkscape:connector-curvature="0"
       inkscape:export-filename="/home/tania/Escritorio/Mooli.me.git/Svelte/public/static/logotext.png"
       inkscape:export-xdpi="49"
       inkscape:export-ydpi="49" />
    <path
       id="path986"
       d="m 81.022819,107.77903 c 0.344069,1.42771 -0.76096,2.52716 -1.712532,3.03837 -3.028339,1.67672 -7.84914,4.1344 -12.9281,4.37247 -0.59518,0.0274 -0.811098,-0.19424 -0.666959,-0.6299 0.68593,-4.1037 1.198269,-8.51272 2.32808,-11.65589 -1.669108,1.59948 -3.14415,2.95238 -3.50378,2.74877 -1.00127,-0.5669 2.27379,-8.541245 4.082071,-7.240195 0.655731,0.4718 0.964219,0.99414 1.04905,1.51034 0.391789,-0.43933 0.831119,-0.782029 1.327539,-1.009449 1.652899,-0.757221 2.591371,0.2179 2.836971,0.963578 0.920059,-0.29132 1.818139,-0.004 2.284348,0.271656 1.339541,0.79161 1.371712,1.64573 1.329071,2.65642 0.523942,-0.1709 1.374781,-0.004 1.7252,0.29466 1.060072,0.90372 1.133531,2.83198 0.707581,3.54906 0.36127,-0.0363 0.637309,0.0517 0.791059,0.30483 0.173281,0.28524 0.2867,0.56093 0.350401,0.82528 z"
       style="fill:#eeaaff;fill-opacity:1;fill-rule:evenodd;stroke:none;stroke-width:0.99999988;stroke-linecap:butt;stroke-linejoin:miter;stroke-miterlimit:4;stroke-dasharray:none;stroke-opacity:1"
       inkscape:connector-curvature="0"
       inkscape:export-filename="/home/tania/Escritorio/Mooli.me.git/Svelte/public/static/logotext.png"
       inkscape:export-xdpi="49"
       inkscape:export-ydpi="49" />
    <text
       id="text992"
       y="127.88118"
       x="37.012733"
       style="font-style:normal;font-variant:normal;font-weight:normal;font-stretch:normal;font-size:18.39498901px;line-height:125%;font-family:Dyuthi;-inkscape-font-specification:'Dyuthi, Normal';font-variant-ligatures:normal;font-variant-caps:normal;font-variant-numeric:normal;font-feature-settings:normal;text-align:start;letter-spacing:0px;word-spacing:0px;writing-mode:lr-tb;text-anchor:start;fill:#ab37c8;fill-opacity:1;stroke:none;stroke-width:0.26458341px;stroke-linecap:butt;stroke-linejoin:miter;stroke-opacity:1"
       xml:space="preserve"
       inkscape:export-xdpi="49"
       inkscape:export-ydpi="49"
       inkscape:export-filename="/home/tania/Escritorio/Mooli.me.git/Svelte/public/static/logotext.png"><tspan
         style="font-style:normal;font-variant:normal;font-weight:normal;font-stretch:normal;font-size:18.39498901px;font-family:Dyuthi;-inkscape-font-specification:'Dyuthi, Normal';font-variant-ligatures:normal;font-variant-caps:normal;font-variant-numeric:normal;font-feature-settings:normal;text-align:start;writing-mode:lr-tb;text-anchor:start;fill:#ab37c8;fill-opacity:1;stroke-width:0.26458341px"
         y="127.88118"
         x="37.012733"
         id="tspan990"
         sodipodi:role="line">mooli</tspan></text>
  </g>
</svg>
