<?xml version="1.0" encoding="UTF-8" standalone="no"?>
<svg
   xmlns:dc="http://purl.org/dc/elements/1.1/"
   xmlns:cc="http://creativecommons.org/ns#"
   xmlns:rdf="http://www.w3.org/1999/02/22-rdf-syntax-ns#"
   xmlns:svg="http://www.w3.org/2000/svg"
   xmlns="http://www.w3.org/2000/svg"
   width="255.63928mm"
   height="236.6998mm"
   viewBox="0 0 255.63928 236.6998"
   version="1.1"
   id="svg8">
  <defs
     id="defs2">
    <clipPath
       clipPathUnits="userSpaceOnUse"
       id="clipPath1061">
      <path
         style="color:#000000;display:inline;overflow:visible;visibility:visible;opacity:1;vector-effect:none;fill:#ff8080;fill-opacity:1;fill-rule:nonzero;stroke:none;stroke-width:0.264583;marker:none;enable-background:accumulate"
         d="M 560.94284,202.80597 A 111.18085,111.18085 0 0 1 449.76199,313.98682 111.18085,111.18085 0 0 1 338.58115,202.80597 111.18085,111.18085 0 0 1 449.76199,91.625122 111.18085,111.18085 0 0 1 560.94284,202.80597 Z"
         id="path1063" />
    </clipPath>
    <clipPath
       clipPathUnits="userSpaceOnUse"
       id="clipPath1061-3">
      <path
         style="color:#000000;display:inline;overflow:visible;visibility:visible;opacity:1;vector-effect:none;fill:#ff8080;fill-opacity:1;fill-rule:nonzero;stroke:none;stroke-width:0.264583;marker:none;enable-background:accumulate"
         d="M 560.94284,202.80597 A 111.18085,111.18085 0 0 1 449.76199,313.98682 111.18085,111.18085 0 0 1 338.58115,202.80597 111.18085,111.18085 0 0 1 449.76199,91.625122 111.18085,111.18085 0 0 1 560.94284,202.80597 Z"
         id="path1063-6" />
    </clipPath>
  </defs>
  <metadata
     id="metadata5">
    <rdf:RDF>
      <cc:Work
         rdf:about="">
        <dc:format>image/svg+xml</dc:format>
        <dc:type
           rdf:resource="http://purl.org/dc/dcmitype/StillImage" />
        <dc:title></dc:title>
      </cc:Work>
    </rdf:RDF>
  </metadata>
  <path
     style="color:#000000;display:inline;overflow:visible;visibility:visible;opacity:1;vector-effect:none;fill:#220b28;fill-opacity:1;fill-rule:nonzero;stroke:none;stroke-width:0.264583;marker:none;enable-background:accumulate"
     id="path909"
     d="M 125.44912,0.00374227 C 110.53884,0.09944735 91.93882,1.4026658 76.129654,13.616864 a 11.672882,11.672882 0 0 0 -0.132291,0.10387 c -3.558125,2.831875 -6.807835,6.028696 -9.781318,9.501227 -20.695237,6.028733 -36.613761,26.534655 -36.630324,48.206877 a 11.672882,11.672882 0 0 0 0,0.01654 c 0.0053,8.237154 2.132859,16.440481 6.021335,23.69933 -2.376012,8.815922 -4.634918,17.390372 -6.908112,24.409362 -2.668244,8.23888 -5.930159,14.43473 -7.143221,15.78508 -8.268811,7.34738 -14.4256389,18.48695 -18.6122997,31.5402 -2.18130435,6.80085 -3.60460392,13.98452 -2.63188976,21.55166 0.87778166,6.8286 4.69347016,14.3828 11.31353046,18.91458 2.579237,2.83848 5.409406,4.90403 8.231028,6.4203 0.0026,0 0.0026,0.003 0.0042,0.003 15.269077,8.45042 40.247424,21.5537 68.559639,22.88077 a 11.672882,11.672882 0 0 0 0.0098,0 c 2.971996,0.13681 7.233502,0.29916 11.642179,-3.95169 3.8332,-3.69599 4.27991,-9.41855 3.61839,-13.008 l 0.0687,0.27853 c -0.0399,-0.23892 -0.0765,-0.49519 -0.11628,-0.73483 7.1722,1.1997 14.46631,1.83634 21.82193,1.84071 a 11.672882,11.672882 0 0 0 0.0263,0 c 8.98956,-0.0153 17.91402,-0.96994 26.65264,-2.77553 -0.0897,0.54581 -0.17395,1.12739 -0.26459,1.66965 l 0.0687,-0.27802 c -0.66139,3.58878 -0.21552,9.30992 3.61735,13.00646 4.4087,4.25188 8.67074,4.08953 11.6427,3.95272 a 11.672882,11.672882 0 0 0 0.01,0 c 28.31222,-1.32707 53.29055,-14.43035 68.55964,-22.88077 l 0.004,-0.003 c 2.81996,-1.51542 5.64925,-3.57941 8.22791,-6.41614 6.56969,-4.49493 10.38837,-11.96944 11.29492,-18.74719 1.00528,-7.51586 -0.3745,-14.65432 -2.51199,-21.41677 -4.08267,-12.91654 -10.26059,-24.02174 -18.23403,-31.40119 -1.93944,-2.55755 -4.39802,-5.31443 -7.37991,-8.39329 -0.19625,-0.40131 -0.9735,-1.75829 -1.69809,-3.46335 -1.02957,-2.42277 -2.28193,-5.7206 -3.60959,-9.45472 -2.16307,-6.08372 -4.52235,-13.32833 -6.80786,-20.45198 3.51688,-6.973776 5.43107,-14.757376 5.4405,-22.56968 a 11.672882,11.672882 0 0 0 0,-0.02791 C 220.4769,48.897413 203.16623,27.753234 181.37293,22.598227 170.72667,11.552011 157.77288,4.0624506 143.85326,1.5095918 137.44543,0.24496025 131.26718,-0.03722846 125.45748,0.00374227 Z" />
  <rect
     style="color:#000000;display:inline;overflow:visible;visibility:visible;opacity:1;vector-effect:none;fill:none;fill-opacity:1;fill-rule:nonzero;stroke:none;stroke-width:0.265;stroke-miterlimit:4;stroke-dasharray:none;stroke-opacity:1;marker:none;enable-background:accumulate"
     id="rect1071"
     width="344.94595"
     height="344.94595"
     x="-47.760704"
     y="-39.850708" />
  <path
     style="color:#000000;display:inline;overflow:visible;visibility:visible;opacity:1;vector-effect:none;fill:#ab37c8;fill-opacity:1;fill-rule:nonzero;stroke:none;stroke-width:0.264583;marker:none;enable-background:accumulate"
     d="m 125.53181,11.675383 c -14.2091,0.0908 -29.704963,1.4728 -42.266163,11.17761 -7.0425,5.60506 -12.94892,13.16087 -17.74982,22.07152 -3.5651,6.61694 -14.038718,7.96612 -16.396918,15.832631 -1.8205,4.56656 4.032538,15.55433 2.46443,20.71294 -7.32443,24.096296 -12.52924,52.236616 -21.53769,61.897006 -10.62657,8.83174 -30.76469,49.09246 -7.82899,56.25238 0,0 2.55344,-10.11283 3.97756,-0.5302 0.69807,4.69982 0.99681,-2.4397 3.6473,-2.79829 3.3704,-0.45643 2.72614,6.58934 3.68454,4.58886 6.57309,-13.72029 10.28052,-3.32743 10.28052,-3.32743 0,0 1.91669,-4.24979 3.61939,-4.73149 1.80451,-0.51078 4.921508,4.70813 4.824518,2.56365 -0.210638,-4.65577 0.43206,-7.66053 1.48881,-9.52862 20.73156,15.23492 45.84717,23.53146 71.732053,23.54688 19.9343,-0.0339 39.55279,-4.98165 57.11899,-14.40532 0.1374,-0.25553 0.27191,-0.51033 0.41961,-0.76843 2.31461,-3.9253 4.49159,-8.00991 6.64094,-12.12482 1.93821,1.88286 2.70565,5.05566 3.26182,3.41889 0.7529,-2.21599 11.24011,-7.05302 10.47481,9.86142 -0.097,2.14448 3.02001,-3.07443 4.82451,-2.56365 1.7027,0.4817 3.61942,4.73149 3.61942,4.73149 0,0 3.70689,-10.39286 10.27999,3.32743 0.9584,2.00048 0.31465,-5.04529 3.68505,-4.58886 2.6505,0.35859 2.94922,7.49811 3.64732,2.79829 1.4241,-9.58263 3.97702,0.5302 3.97702,0.5302 22.77338,-7.10923 3.08236,-46.84824 -7.60005,-56.05603 -1.75501,-2.41371 -4.35222,-5.39724 -7.9928,-9.08626 -4.0687,-5.2909 -12.52737,-32.60631 -18.38957,-50.998426 -2.2674,-7.11381 1.86806,-19.28354 0.78186,-21.93665 -3.3966,-8.890391 -12.78394,-11.622731 -17.78134,-18.909961 -10.5835,-16.43409 -25.37634,-26.8659 -40.77994,-29.66123 -5.3406,-1.06052 -10.74118,-1.33379 -16.12718,-1.29553 z"
     id="path1007" />
  <path
     id="path1009"
     d="m 156.27669,108.2512 c 0,26.69148 -7.6123,61.22115 -30.8054,59.48308 -18.3651,2.31742 -30.805203,-32.7916 -30.805203,-59.48308 0,-11.292276 8.774303,-9.673096 13.070003,-14.721916 5.8579,-6.88506 8.6892,-18.21658 18.5048,-18.21657 9.9311,-1e-5 11.1006,10.14712 16.5157,17.22812 3.8616,5.04967 13.5201,4.59938 13.5201,15.710366 z"
     style="color:#000000;display:inline;overflow:visible;visibility:visible;opacity:1;vector-effect:none;fill:#eeaaff;fill-opacity:1;fill-rule:nonzero;stroke-width:1;marker:none;enable-background:accumulate" />
  <ellipse
     cx="125.47124"
     cy="149.98511"
     rx="21.260332"
     ry="18.958652"
     id="ellipse1011"
     style="color:#000000;display:inline;overflow:visible;visibility:visible;opacity:1;vector-effect:none;fill:#f6d5ff;fill-opacity:1;fill-rule:nonzero;stroke:none;stroke-width:1;stroke-linecap:round;stroke-linejoin:miter;stroke-miterlimit:4;stroke-dasharray:none;stroke-dashoffset:3.61808;stroke-opacity:1;marker:none;enable-background:accumulate" />
  <ellipse
     transform="scale(-1,1)"
     ry="3.8161159"
     rx="4.6834145"
     cy="157.31799"
     cx="-134.83844"
     id="ellipse1013"
     style="color:#000000;display:inline;overflow:visible;visibility:visible;opacity:1;vector-effect:none;fill:#220b28;fill-opacity:1;fill-rule:nonzero;stroke:none;stroke-width:1;stroke-linecap:round;stroke-linejoin:miter;stroke-miterlimit:4;stroke-dasharray:none;stroke-dashoffset:3.61808;stroke-opacity:1;marker:none;enable-background:accumulate" />
  <ellipse
     style="color:#000000;display:inline;overflow:visible;visibility:visible;opacity:1;vector-effect:none;fill:#220b28;fill-opacity:1;fill-rule:nonzero;stroke:none;stroke-width:1;stroke-linecap:round;stroke-linejoin:miter;stroke-miterlimit:4;stroke-dasharray:none;stroke-dashoffset:3.61808;stroke-opacity:1;marker:none;enable-background:accumulate"
     id="ellipse1015"
     cx="-116.1043"
     cy="157.31799"
     rx="4.6834145"
     ry="3.8161159"
     transform="scale(-1,1)" />
  <path
     d="m 88.277987,72.721804 a 8.5623322,8.5623322 0 0 1 -8.5485,8.56232 8.5623322,8.5623322 0 0 1 -8.5761,-8.53453 8.5623322,8.5623322 0 0 1 8.5205,-8.59002 8.5623322,8.5623322 0 0 1 8.6039,8.50664 l -8.5622,0.0556 z"
     id="path1021"
     style="color:#000000;display:inline;overflow:visible;visibility:visible;opacity:1;vector-effect:none;fill:#220b28;fill-opacity:1;fill-rule:nonzero;stroke:none;stroke-width:0.264583;marker:none;enable-background:accumulate" />
  <circle
     style="color:#000000;display:inline;overflow:visible;visibility:visible;opacity:1;vector-effect:none;fill:#ffd5d5;fill-opacity:1;fill-rule:nonzero;stroke:none;stroke-width:0.264583;marker:none;enable-background:accumulate"
     id="circle1023"
     cx="84.056938"
     cy="67.419556"
     r="1.3036615" />
  <path
     style="color:#000000;display:inline;overflow:visible;visibility:visible;opacity:1;vector-effect:none;fill:#220b28;fill-opacity:1;fill-rule:nonzero;stroke:none;stroke-width:0.264583;marker:none;enable-background:accumulate"
     id="path1025"
     d="m 178.48429,72.945254 a 8.5623322,8.5623322 0 0 1 -8.5485,8.56232 8.5623322,8.5623322 0 0 1 -8.5761,-8.53453 8.5623322,8.5623322 0 0 1 8.5205,-8.59002 8.5623322,8.5623322 0 0 1 8.6039,8.50664 l -8.5622,0.0556 z" />
  <circle
     r="1.3036615"
     cy="67.643005"
     cx="174.26324"
     id="circle1027"
     style="color:#000000;display:inline;overflow:visible;visibility:visible;opacity:1;vector-effect:none;fill:#ffd5d5;fill-opacity:1;fill-rule:nonzero;stroke:none;stroke-width:0.264583;marker:none;enable-background:accumulate" />
  <path
     style="color:#000000;display:inline;overflow:visible;visibility:visible;opacity:1;vector-effect:none;fill:#f6d5ff;fill-opacity:1;fill-rule:nonzero;stroke:#ffd5d5;stroke-width:0.265;stroke-miterlimit:4;stroke-dasharray:none;stroke-opacity:1;marker:none;enable-background:accumulate"
     d="M 79.722197,32.972793 A 38.464699,38.464699 0 0 0 41.257369,71.437624 38.464699,38.464699 0 0 0 79.722197,109.90246 38.464699,38.464699 0 0 0 117.22689,79.758564 l 15.74064,0.49092 A 38.464699,38.464699 0 0 0 170.36731,109.90246 38.464699,38.464699 0 0 0 208.83163,71.437624 38.464699,38.464699 0 0 0 170.36731,32.972793 38.464699,38.464699 0 0 0 131.90558,71.348224 L 118.1612,70.918274 A 38.464699,38.464699 0 0 0 79.722197,32.972793 Z m 0,10.41796 A 28.047174,28.047174 0 0 1 107.76907,71.437624 28.047174,28.047174 0 0 1 79.722197,99.484494 28.047174,28.047174 0 0 1 51.674809,71.437624 28.047174,28.047174 0 0 1 79.722197,43.390753 Z m 90.645113,0 a 28.047174,28.047174 0 0 1 28.04687,28.046871 28.047174,28.047174 0 0 1 -28.04687,28.04687 28.047174,28.047174 0 0 1 -28.04738,-28.04687 28.047174,28.047174 0 0 1 28.04738,-28.046871 z"
     id="path1029" />
  <path
     id="path1037"
     d="m 16.961589,188.54305 c -1.6922,7.02168 3.7425,12.42899 8.4225,14.94316 14.8939,8.24641 38.603398,20.33367 63.582598,21.50454 2.9272,0.13475 3.9891,-0.95526 3.2802,-3.09788 -3.3735,-20.18271 -5.8933,-41.867 -11.4499,-57.32569 8.209,7.86653 15.4635,14.52026 17.2322,13.51889 4.924403,-2.78806 -11.1829,-42.00727 -20.0763,-35.6085 -3.225,2.32043 -4.7422,4.88936 -5.1594,7.42815 -1.9269,-2.16074 -4.0876,-3.84618 -6.5291,-4.96467 -8.1292,-3.72412 -12.7448,1.07165 -13.9527,4.73907 -4.524998,-1.43278 -8.941898,-0.0189 -11.234798,1.33603 -6.5881,3.89331 -6.7463,8.094 -6.5366,13.06473 -2.5768,-0.84049 -6.7614,-0.02 -8.4848,1.44919 -5.2136,4.44463 -5.5749,13.92812 -3.48,17.45491 -1.7768,-0.17849 -3.1344,0.25437 -3.8906,1.49918 -0.8522,1.40283 -1.41,2.7587 -1.7233,4.05889 z"
     style="fill:#eeaaff;fill-opacity:1;fill-rule:evenodd;stroke:none;stroke-width:1;stroke-linecap:butt;stroke-linejoin:miter;stroke-miterlimit:4;stroke-dasharray:none;stroke-opacity:1" />
  <path
     style="fill:#eeaaff;fill-opacity:1;fill-rule:evenodd;stroke:none;stroke-width:1;stroke-linecap:butt;stroke-linejoin:miter;stroke-miterlimit:4;stroke-dasharray:none;stroke-opacity:1"
     d="m 238.67619,188.54305 c 1.6922,7.02168 -3.7425,12.42899 -8.4225,14.94316 -14.8939,8.24641 -38.6034,20.33367 -63.5826,21.50454 -2.9272,0.13475 -3.9891,-0.95526 -3.2802,-3.09788 3.3735,-20.18271 5.8933,-41.867 11.4499,-57.32569 -8.209,7.86653 -15.4635,14.52026 -17.2322,13.51889 -4.9244,-2.78806 11.1829,-42.00727 20.0763,-35.6085 3.225,2.32043 4.7422,4.88936 5.1594,7.42815 1.9269,-2.16074 4.0876,-3.84618 6.5291,-4.96467 8.1292,-3.72412 12.7448,1.07165 13.9527,4.73907 4.525,-1.43278 8.9419,-0.0189 11.2348,1.33603 6.5881,3.89331 6.7463,8.094 6.5366,13.06473 2.5768,-0.84049 6.7614,-0.02 8.4848,1.44919 5.2136,4.44463 5.5749,13.92812 3.48,17.45491 1.7768,-0.17849 3.1344,0.25437 3.8906,1.49918 0.8522,1.40283 1.41,2.7587 1.7233,4.05889 z"
     id="path895" />
</svg>
