<?xml version="1.0" encoding="UTF-8" standalone="no"?>
<svg
   xmlns:dc="http://purl.org/dc/elements/1.1/"
   xmlns:cc="http://creativecommons.org/ns#"
   xmlns:rdf="http://www.w3.org/1999/02/22-rdf-syntax-ns#"
   xmlns:svg="http://www.w3.org/2000/svg"
   xmlns="http://www.w3.org/2000/svg"
   width="393.65671mm"
   height="393.65671mm"
   viewBox="0 0 393.6567 393.65672"
   version="1.1"
   id="svg8">
  <defs
     id="defs2">
    <clipPath
       clipPathUnits="userSpaceOnUse"
       id="clipPath1061">
      <path
         style="color:#000000;display:inline;overflow:visible;visibility:visible;opacity:1;vector-effect:none;fill:#ff8080;fill-opacity:1;fill-rule:nonzero;stroke:none;stroke-width:0.26458332;marker:none;enable-background:accumulate"
         d="M 560.94284,202.80597 A 111.18085,111.18085 0 0 1 449.76199,313.98682 111.18085,111.18085 0 0 1 338.58115,202.80597 111.18085,111.18085 0 0 1 449.76199,91.625122 111.18085,111.18085 0 0 1 560.94284,202.80597 Z"
         id="path1063" />
    </clipPath>
    <clipPath
       clipPathUnits="userSpaceOnUse"
       id="clipPath1061-3">
      <path
         style="color:#000000;display:inline;overflow:visible;visibility:visible;opacity:1;vector-effect:none;fill:#ff8080;fill-opacity:1;fill-rule:nonzero;stroke:none;stroke-width:0.26458332;marker:none;enable-background:accumulate"
         d="M 560.94284,202.80597 A 111.18085,111.18085 0 0 1 449.76199,313.98682 111.18085,111.18085 0 0 1 338.58115,202.80597 111.18085,111.18085 0 0 1 449.76199,91.625122 111.18085,111.18085 0 0 1 560.94284,202.80597 Z"
         id="path1063-6" />
    </clipPath>
  </defs>
  <metadata
     id="metadata5">
    <rdf:RDF>
      <cc:Work
         rdf:about="">
        <dc:format>image/svg+xml</dc:format>
        <dc:type
           rdf:resource="http://purl.org/dc/dcmitype/StillImage" />
        <dc:title></dc:title>
      </cc:Work>
    </rdf:RDF>
  </metadata>
  <g
     id="layer1"
     transform="translate(-2385.1665,-425.60072)">
    <path
       style="color:#000000;display:inline;overflow:visible;visibility:visible;opacity:1;vector-effect:none;fill:#ffd5d5;fill-opacity:1;fill-rule:nonzero;stroke:none;stroke-width:0.99999982;marker:none;enable-background:accumulate"
       id="path911"
       d="m 6892.7227,111.62305 c -134.8474,-3.4e-4 -268.8652,55.51201 -364.2168,150.86328 -95.3517,95.35126 -150.8631,229.36749 -150.8633,364.21484 a 56.769089,56.769089 0 0 0 0,0.125 c 0.1681,75.88473 17.4699,151.65293 50.0195,220.19141 -1.1944,3.43272 -2.2563,6.84992 -3.1523,10.23437 -17.7989,63.99909 -44.8104,168.91945 -24.1856,277.71285 a 56.769089,56.769089 0 0 0 0.01,0.049 c 2.4104,12.6547 5.9535,32.0028 30.3477,47.6191 21.2643,13.6127 48.1959,9.2495 63.5449,2.4766 l -1.7695,0.914 c 30.8584,-13.0398 63.5355,-25.8683 95.7656,-39.4922 1.8816,2.8939 4.0005,5.8044 6.7012,8.7071 a 56.769089,56.769089 0 0 0 0,0 c 16.7988,18.055 37.4784,20.1759 49.0332,19.8164 11.5549,-0.3596 19.0042,-2.6718 25.961,-5.043 13.9134,-4.7423 25.4337,-10.9892 37.6015,-18.4179 14.2306,-8.6882 28.5471,-19.0151 42.2071,-30.504 46.3328,13.5186 94.5585,20.5458 142.8242,20.6914 a 56.769089,56.769089 0 0 0 0.3945,0 c 47.7705,-0.1875 95.495,-7.1207 141.3789,-20.4101 13.694,11.4886 28.0397,21.8195 42.293,30.4883 12.0947,7.3559 23.5432,13.5419 37.416,18.2363 6.9364,2.3472 14.3775,4.6385 25.918,4.9648 11.5404,0.3263 32.128,-1.8754 48.8261,-19.8222 a 56.769089,56.769089 0 0 0 0,0 c 2.7008,-2.9029 4.8195,-5.8131 6.7012,-8.7071 32.2304,13.6239 64.9073,26.4525 95.7656,39.4922 l -1.7695,-0.914 c 15.3491,6.773 42.2805,11.1359 63.5449,-2.4766 24.3944,-15.6162 27.9375,-34.9656 30.3476,-47.6211 a 56.769089,56.769089 0 0 0 0.01,-0.047 c 20.6251,-108.7933 -6.3886,-213.71247 -24.1875,-277.71089 -0.6654,-2.51328 -1.4914,-5.05203 -2.3184,-7.58985 33.2514,-69.29347 50.8897,-146.06466 50.9297,-222.93359 a 56.769089,56.769089 0 0 0 0,-0.0293 c -3e-4,-134.84696 -55.5121,-268.86364 -150.8633,-364.21484 -95.3512,-95.35121 -229.3679,-150.863 -364.2148,-150.86328 z"
       transform="matrix(0.26458333,0,0,0.26458333,759.33593,434.52428)" />
    <circle
       r="121.2626"
       cy="600.33923"
       cx="2583.0352"
       id="circle913"
       style="color:#000000;display:inline;overflow:visible;visibility:visible;opacity:1;vector-effect:none;fill:#220b28;fill-opacity:1;fill-rule:nonzero;stroke:none;stroke-width:0.26458329;marker:none;enable-background:accumulate" />
    <path
       id="path915"
       d="m 2583.0957,523.87425 c -14.2091,0.0908 -29.7049,1.47282 -42.2661,11.17763 -12.2722,9.76731 -21.0948,25.45929 -26.6285,43.91916 -10.6767,26.78071 -16.0117,67.54418 -27.7302,77.70214 -10.0367,-1.7077 2.8424,10.02075 17.6902,35.70964 21.9633,18.8381 49.9387,29.20162 78.8742,29.21889 19.9343,-0.0339 39.5528,-4.98165 57.119,-14.40531 0.1374,-0.25554 0.2719,-0.51033 0.4196,-0.76843 3.7247,-6.31667 7.1031,-13.03441 10.5611,-19.65254 3.6095,-6.921 7.2198,-13.86454 11.2448,-20.30264 5.888,-5.26206 19.1287,-14.8022 13.0121,-19.79674 -5.6424,-7.33734 -19.7278,-57.03173 -23.6223,-66.54424 -3.3966,-8.89039 -6.7694,-18.01355 -11.7668,-25.30078 -10.5835,-16.43409 -25.3763,-26.86592 -40.7799,-29.66125 -5.3406,-1.06052 -10.7412,-1.33379 -16.1272,-1.29553 z"
       style="color:#000000;display:inline;overflow:visible;visibility:visible;opacity:1;vector-effect:none;fill:#672178;fill-opacity:1;fill-rule:nonzero;stroke:none;stroke-width:0.26458329;marker:none;enable-background:accumulate" />
    <path
       id="path917"
       d="m 2613.8406,620.4503 c 0,26.69148 -7.6123,61.22115 -30.8054,59.48308 -18.3651,2.31742 -30.8052,-32.7916 -30.8052,-59.48308 0,-11.29228 8.7743,-9.6731 13.07,-14.72192 5.8579,-6.88506 8.6892,-18.21658 18.5048,-18.21657 9.9311,-10e-6 11.1006,10.14712 16.5157,17.22812 3.8616,5.04967 13.5201,4.59938 13.5201,15.71037 z"
       style="color:#000000;display:inline;overflow:visible;visibility:visible;opacity:1;vector-effect:none;fill:#ffaaaa;fill-opacity:1;fill-rule:nonzero;stroke-width:0.99999994;marker:none;enable-background:accumulate" />
    <ellipse
       cx="2583.0352"
       cy="662.1842"
       rx="21.260332"
       ry="18.958652"
       id="ellipse919"
       style="color:#000000;display:inline;overflow:visible;visibility:visible;opacity:1;vector-effect:none;fill:#ffd5d5;fill-opacity:1;fill-rule:nonzero;stroke:none;stroke-width:0.99999982;stroke-linecap:round;stroke-linejoin:miter;stroke-miterlimit:4;stroke-dasharray:none;stroke-dashoffset:3.61808228;stroke-opacity:1;marker:none;enable-background:accumulate" />
    <ellipse
       transform="scale(-1,1)"
       ry="3.8161159"
       rx="4.6834145"
       cy="669.51709"
       cx="-2592.4023"
       id="ellipse921"
       style="color:#000000;display:inline;overflow:visible;visibility:visible;opacity:1;vector-effect:none;fill:#220b28;fill-opacity:1;fill-rule:nonzero;stroke:none;stroke-width:1;stroke-linecap:round;stroke-linejoin:miter;stroke-miterlimit:4;stroke-dasharray:none;stroke-dashoffset:3.61808228;stroke-opacity:1;marker:none;enable-background:accumulate" />
    <ellipse
       style="color:#000000;display:inline;overflow:visible;visibility:visible;opacity:1;vector-effect:none;fill:#220b28;fill-opacity:1;fill-rule:nonzero;stroke:none;stroke-width:1;stroke-linecap:round;stroke-linejoin:miter;stroke-miterlimit:4;stroke-dasharray:none;stroke-dashoffset:3.61808228;stroke-opacity:1;marker:none;enable-background:accumulate"
       id="ellipse923"
       cx="-2573.6682"
       cy="669.51709"
       rx="4.6834145"
       ry="3.8161159"
       transform="scale(-1,1)" />
    <path
       id="path925"
       d="m 2631.0834,655.48519 c 9.208,-8.38345 55.7823,-20.05586 57.4757,4.66665 0,0 -10.429,0.13669 -1.4385,3.74569 4.4094,1.76997 -2.6044,0.40348 -3.5683,2.89847 -1.2261,3.17236 5.7765,4.18084 3.6082,4.64888 -14.8711,3.20964 -5.6224,9.22755 -5.6224,9.22755 0,0 -4.5783,0.87811 -5.442,2.4225 -0.9156,1.6368 3.4377,5.87986 1.3743,5.28784 -16.2751,-4.66961 -14.0039,6.65356 -12.0231,7.90013 1.6078,1.01189 -2.4978,0.91852 -4.7287,2.84925 -2.0108,1.73996 0.191,6.0263 -2.0983,5.569 -13.9775,-2.79177 -10.7691,6.29049 -10.7691,6.29049 0,0 -6.4615,-1.23987 -8.471,-0.80458 -2.0088,0.43531 -3.5848,3.41648 -3.5848,3.41648 0,0 -2.344,-3.68415 -7.3147,-2.92123 -4.9711,0.76292 -5.2801,5.06115 -5.2801,5.06115 -26.5425,-8.19973 -1.3251,-51.87483 7.8828,-60.25827 z"
       style="fill:#ffaaaa;fill-opacity:1;fill-rule:evenodd;stroke:none;stroke-width:0.99999994;stroke-linecap:butt;stroke-linejoin:miter;stroke-miterlimit:4;stroke-dasharray:none;stroke-opacity:1" />
    <path
       id="path927"
       d="m 2679.3557,653.52199 c -1.3376,0.003 -2.7857,0.23088 -4.3481,0.7343 -1.3862,0.44667 -2.1223,1.66677 -2.3611,3.43649 -2.9443,-2.85607 -12.2533,-4.70501 -17.7865,-0.66506 -1.829,1.33536 -3.5977,5.21484 -3.3781,7.91631 -4.7864,-1.35744 -8.9096,-2.17794 -14.2255,3.32692 -1.85,1.9158 -4.2498,5.88405 -3.9062,10.61797 -3.8475,0.32385 -9.5835,3.70012 -7.8476,12.47159 0.5213,2.63421 1.659,5.12736 3.3135,7.50289 -2.5663,-0.18317 -5.4174,0.69699 -8.4227,3.29541 -8.2879,7.16569 26.1233,31.93452 29.978,27.79157 1.3845,-1.48809 -3.4046,-10.08861 -9.1514,-19.89902 13.7472,8.99229 34.2553,16.47537 53.1043,24.44036 1.9195,1.18684 3.2261,0.40634 3.7744,-2.47219 4.6578,-24.569 -1.5974,-50.43636 -6.1624,-66.83727 -1.3595,-5.13567 -5.3579,-11.67688 -12.5806,-11.66027 z"
       style="fill:#672178;fill-opacity:1;fill-rule:evenodd;stroke:none;stroke-width:1;stroke-linecap:butt;stroke-linejoin:miter;stroke-miterlimit:4;stroke-dasharray:none;stroke-opacity:1" />
    <path
       d="m 2545.8419,584.9209 a 8.5623322,8.5623322 0 0 1 -8.5485,8.56232 8.5623322,8.5623322 0 0 1 -8.5761,-8.53453 8.5623322,8.5623322 0 0 1 8.5205,-8.59002 8.5623322,8.5623322 0 0 1 8.6039,8.50664 l -8.5622,0.0556 z"
       id="path929"
       style="color:#000000;display:inline;overflow:visible;visibility:visible;opacity:1;vector-effect:none;fill:#220b28;fill-opacity:1;fill-rule:nonzero;stroke:none;stroke-width:0.26458332;marker:none;enable-background:accumulate" />
    <circle
       style="color:#000000;display:inline;overflow:visible;visibility:visible;opacity:1;vector-effect:none;fill:#ffd5d5;fill-opacity:1;fill-rule:nonzero;stroke:none;stroke-width:0.26458332;marker:none;enable-background:accumulate"
       id="circle931"
       cx="2541.6208"
       cy="579.61865"
       r="1.3036615" />
    <path
       style="color:#000000;display:inline;overflow:visible;visibility:visible;opacity:1;vector-effect:none;fill:#220b28;fill-opacity:1;fill-rule:nonzero;stroke:none;stroke-width:0.26458332;marker:none;enable-background:accumulate"
       id="path933"
       d="m 2636.0482,585.14435 a 8.5623322,8.5623322 0 0 1 -8.5485,8.56232 8.5623322,8.5623322 0 0 1 -8.5761,-8.53453 8.5623322,8.5623322 0 0 1 8.5205,-8.59002 8.5623322,8.5623322 0 0 1 8.6039,8.50664 l -8.5622,0.0556 z" />
    <circle
       r="1.3036615"
       cy="579.8421"
       cx="2631.8271"
       id="circle935"
       style="color:#000000;display:inline;overflow:visible;visibility:visible;opacity:1;vector-effect:none;fill:#ffd5d5;fill-opacity:1;fill-rule:nonzero;stroke:none;stroke-width:0.26458332;marker:none;enable-background:accumulate" />
    <g
       id="g943"
       transform="translate(382.07859,5.1458396)">
      <path
         id="path937"
         d="m 2155.2074,540.02607 a 38.464697,38.464697 0 0 0 -38.4647,38.46463 38.464697,38.464697 0 0 0 38.4647,38.46489 38.464697,38.464697 0 0 0 38.4648,-38.46489 38.464697,38.464697 0 0 0 -38.4648,-38.46463 z m 0,10.4177 a 28.047174,28.047174 0 0 1 28.0471,28.04693 28.047174,28.047174 0 0 1 -28.0471,28.0472 28.047174,28.047174 0 0 1 -28.0472,-28.0472 28.047174,28.047174 0 0 1 28.0472,-28.04693 z"
         style="color:#000000;display:inline;overflow:visible;visibility:visible;opacity:1;vector-effect:none;fill:#ffd5d5;fill-opacity:1;fill-rule:nonzero;stroke:none;stroke-width:0.26499999;stroke-miterlimit:4;stroke-dasharray:none;stroke-opacity:1;marker:none;enable-background:accumulate" />
      <path
         style="color:#000000;display:inline;overflow:visible;visibility:visible;opacity:1;vector-effect:none;fill:#ffd5d5;fill-opacity:1;fill-rule:nonzero;stroke:none;stroke-width:0.26499999;stroke-miterlimit:4;stroke-dasharray:none;stroke-opacity:1;marker:none;enable-background:accumulate"
         d="m 2245.8524,540.02607 a 38.464697,38.464697 0 0 0 -38.4647,38.46463 38.464697,38.464697 0 0 0 38.4647,38.46489 38.464697,38.464697 0 0 0 38.4648,-38.46489 38.464697,38.464697 0 0 0 -38.4648,-38.46463 z m 0,10.4177 a 28.047174,28.047174 0 0 1 28.0472,28.04693 28.047174,28.047174 0 0 1 -28.0472,28.0472 28.047174,28.047174 0 0 1 -28.0473,-28.0472 28.047174,28.047174 0 0 1 28.0473,-28.04693 z"
         id="path939" />
      <path
         id="path941"
         d="m 2189.8216,582.28664 21.2868,0.66522"
         style="fill:none;fill-rule:evenodd;stroke:#ffd5d5;stroke-width:8.86499977;stroke-linecap:butt;stroke-linejoin:miter;stroke-miterlimit:4;stroke-dasharray:none;stroke-opacity:1" />
    </g>
    <path
       style="fill:#ffaaaa;fill-opacity:1;fill-rule:evenodd;stroke:none;stroke-width:0.99999994;stroke-linecap:butt;stroke-linejoin:miter;stroke-miterlimit:4;stroke-dasharray:none;stroke-opacity:1"
       d="m 2534.5259,655.48528 c -9.208,-8.38345 -55.7823,-20.05586 -57.4757,4.66665 0,0 10.429,0.13669 1.4385,3.74569 -4.4094,1.76997 2.6044,0.40348 3.5683,2.89847 1.2261,3.17236 -5.7765,4.18084 -3.6082,4.64888 14.8711,3.20964 5.6224,9.22755 5.6224,9.22755 0,0 4.5783,0.87811 5.442,2.4225 0.9156,1.6368 -3.4377,5.87986 -1.3743,5.28784 16.2751,-4.66961 14.0039,6.65356 12.0231,7.90013 -1.6078,1.01189 2.4978,0.91852 4.7287,2.84925 2.0108,1.73996 -0.191,6.0263 2.0983,5.569 13.9775,-2.79177 10.7691,6.29049 10.7691,6.29049 0,0 6.4615,-1.23987 8.471,-0.80458 2.0088,0.43531 3.5848,3.41648 3.5848,3.41648 0,0 2.344,-3.68415 7.3147,-2.92123 4.9711,0.76292 5.2801,5.06115 5.2801,5.06115 26.5425,-8.19973 1.3251,-51.87483 -7.8828,-60.25827 z"
       id="path945" />
    <path
       id="path947"
       d="m 2486.2538,653.5225 c -7.2227,-0.0166 -11.2212,6.5246 -12.5807,11.66026 -4.565,16.40094 -10.8202,42.26828 -6.1624,66.83727 0.5482,2.87854 1.8549,3.65853 3.7745,2.47169 18.8489,-7.96499 39.3565,-15.44807 53.1037,-24.44036 -5.7468,9.81041 -10.5354,18.41093 -9.1509,19.89902 3.8547,4.14295 38.2654,-20.62588 29.9775,-27.79157 -3.0055,-2.59852 -5.8564,-3.47816 -8.4227,-3.29488 1.6546,-2.37567 2.7926,-4.86857 3.314,-7.50292 1.736,-8.77144 -4,-12.14824 -7.8476,-12.47209 0.3436,-4.73395 -2.0567,-8.70217 -3.9067,-10.61797 -5.3159,-5.50486 -9.4386,-4.68386 -14.225,-3.32642 0.2196,-2.70145 -1.5496,-6.58145 -3.3786,-7.91681 -5.5332,-4.03995 -14.8416,-2.19048 -17.786,0.66559 -0.2387,-1.76972 -0.9748,-2.98984 -2.3611,-3.43649 -1.5623,-0.50342 -3.0106,-0.73131 -4.348,-0.73432 z"
       style="fill:#672178;fill-opacity:1;fill-rule:evenodd;stroke:none;stroke-width:1;stroke-linecap:butt;stroke-linejoin:miter;stroke-miterlimit:4;stroke-dasharray:none;stroke-opacity:1" />
  </g>
</svg>
